<svg width="24" height="24" viewBox="0 0 24 24" fill="none" xmlns="http://www.w3.org/2000/svg">
<path fill-rule="evenodd" clip-rule="evenodd" d="M12.2773 1.41176H11.7209C11.5476 1.43985 11.37 1.46146 11.1966 1.4982C10.4069 1.66242 9.73498 2.02977 9.2235 2.67371C9.20887 2.69342 9.18242 2.70962 9.15397 2.7199C9.13256 2.72766 9.11009 2.73205 9.09079 2.73205C8.5836 2.73637 8.07853 2.73421 7.57134 2.73421H7.42157V4.05449L7.40738 4.05513C7.39125 4.05591 7.37607 4.05684 7.36163 4.05773L7.3427 4.05887C7.32235 4.06006 7.30324 4.06097 7.28456 4.06097C7.1587 4.06138 7.0329 4.0611 6.90722 4.06056L6.65929 4.05924C6.19667 4.05657 5.7348 4.0539 5.27292 4.07179C4.1216 4.11716 3.10292 5.01824 2.88674 6.16134C2.84609 6.37311 2.82686 6.59135 2.82686 6.80528C2.82368 9.69513 2.82406 12.5861 2.82443 15.4775V15.6246L2.82468 18.5366C2.82468 18.6894 2.82443 18.8419 2.82418 18.9944C2.82375 19.2991 2.82325 19.6034 2.82468 19.9088C2.83109 21.1059 3.54588 22.1042 4.65232 22.4607C4.72994 22.4856 4.80949 22.505 4.88967 22.5222C4.94002 22.5331 4.99063 22.5431 5.04118 22.553C5.09869 22.5644 5.15615 22.5757 5.21298 22.5882H18.781C18.8178 22.5796 18.8548 22.5715 18.8919 22.5636C18.9243 22.5568 18.9567 22.5501 18.9892 22.5434C19.1428 22.5119 19.2966 22.4803 19.4423 22.4283C20.493 22.0523 21.1757 21.054 21.1757 19.9001C21.1771 18.4351 21.1767 16.9711 21.1762 15.5068C21.1759 14.7745 21.1757 14.0421 21.1757 13.3095L21.1759 12.1093L21.1762 11.123C21.1767 9.66586 21.1771 8.20904 21.1757 6.75126C21.1757 5.63193 20.553 4.68331 19.545 4.25762C19.2111 4.11716 18.8645 4.05881 18.5028 4.06097C18.1077 4.06241 17.7135 4.06193 17.319 4.06145L17.1006 4.0612L16.7265 4.06097C16.6566 4.06097 16.6213 4.06097 16.6035 4.04315C16.5853 4.02497 16.5853 3.98824 16.5853 3.91404V2.86602V2.73421H16.4397L16.0576 2.73448C15.675 2.73489 15.2917 2.73529 14.9097 2.73205C14.8853 2.73205 14.8562 2.72578 14.8308 2.71443C14.8116 2.70579 14.7944 2.6942 14.7834 2.68019C14.274 2.03625 13.6042 1.66674 12.8145 1.4982C12.691 1.47114 12.5664 1.4535 12.4414 1.43582L12.3723 1.42596C12.3407 1.42139 12.309 1.41671 12.2773 1.41176ZM7.32527 5.38559C7.35092 5.38559 7.37445 5.38991 7.41086 5.39207V8.024H16.5789V5.39207L16.6066 5.39067L16.6356 5.38889C16.6625 5.38716 16.6871 5.38559 16.7116 5.38559C16.8912 5.38559 17.0711 5.38722 17.2511 5.38886C17.6562 5.39254 18.0618 5.39622 18.4664 5.38127C19.2925 5.35318 19.8724 6.02736 19.8681 6.79663C19.854 8.94215 19.8561 11.0888 19.8581 13.2349V13.2593L19.859 14.2064C19.8594 14.6609 19.8596 15.1154 19.8596 15.5697L19.8599 16.5093L19.8601 17.0175C19.8605 17.9827 19.861 18.9479 19.8596 19.9131C19.8596 20.5376 19.4979 21.0389 18.9244 21.2096C18.8067 21.2442 18.6783 21.2658 18.5563 21.2658H18.5531H18.5499C14.1778 21.2679 9.80775 21.2701 5.43769 21.2679C4.70156 21.2679 4.13013 20.6737 4.13013 19.9044C4.12876 18.8395 4.12919 17.7736 4.12963 16.7081V16.6051C4.12988 16.0553 4.13013 15.5056 4.13013 14.9561V6.75558C4.13013 6.10516 4.52179 5.58007 5.12527 5.42665C5.22157 5.40288 5.32216 5.38775 5.42057 5.38775C5.8972 5.38451 6.37264 5.38491 6.84865 5.38532L7.32527 5.38559ZM15.2691 6.6994H8.72702V4.06314H10.1736C10.1886 3.73685 10.3192 3.47755 10.5418 3.26362C10.8221 2.99568 11.1624 2.84657 11.5369 2.77742C12.0419 2.68235 12.5342 2.72989 12.9985 2.95462C13.1462 3.02592 13.2896 3.12316 13.4158 3.23121C13.6727 3.44945 13.7775 3.67634 13.8267 4.05881H15.2691V6.6994ZM16.5575 10.6797H11.9992C10.6595 10.6797 9.31762 10.6797 7.97582 10.6775C7.91482 10.6775 7.85381 10.677 7.79281 10.6764C7.65051 10.675 7.50822 10.6737 7.36592 10.6797C6.98285 10.6948 6.68967 11.0773 6.76673 11.4554C6.83732 11.8012 7.10056 12 7.48363 12H14.8026C15.3954 12 15.986 12.0021 16.5789 12C16.9662 11.9978 17.2637 11.6802 17.2401 11.2955C17.2187 10.939 16.9362 10.6797 16.5575 10.6797ZM11.9885 13.9858H16.5468C16.8956 13.9858 17.1503 14.1803 17.2231 14.4958C17.3172 14.9063 17.0176 15.3017 16.6003 15.3039C15.9534 15.3072 15.3053 15.3067 14.6578 15.3063L14.0108 15.3061H7.46222C7.17974 15.3061 6.96144 15.198 6.82879 14.9452C6.6019 14.5066 6.91438 13.988 7.40875 13.9858C8.27548 13.9826 9.14221 13.983 10.0089 13.9834L10.8756 13.9837C11.248 13.9858 11.6182 13.9858 11.9885 13.9858ZM10.8707 18.6184L11.9991 18.6187H14.6978C15.3291 18.6187 15.9604 18.623 16.5917 18.6165C16.9641 18.6144 17.2444 18.3248 17.2444 17.9596C17.2444 17.5707 16.9448 17.2963 16.5275 17.2963H10.0431L9.38808 17.296C8.73262 17.2956 8.07641 17.2952 7.42151 17.2984C7.14762 17.3006 6.94003 17.4281 6.82232 17.6787C6.70672 17.9207 6.73884 18.1563 6.89938 18.368C7.04491 18.5603 7.24821 18.6208 7.48357 18.6208C8.61205 18.6176 9.74165 18.618 10.8707 18.6184Z" fill="#C0C9D8"/>
</svg>
