<svg width="27" height="17" viewBox="0 0 27 17" fill="none" xmlns="http://www.w3.org/2000/svg">
<path fill-rule="evenodd" clip-rule="evenodd" d="M0 1.5C0 0.671573 0.671573 0 1.5 0H25.5C26.3284 0 27 0.671573 27 1.5C27 2.32843 26.3284 3 25.5 3H1.5C0.671573 3 0 2.32843 0 1.5Z" fill="#C0C9D8"/>
<path fill-rule="evenodd" clip-rule="evenodd" d="M0 8.5C0 7.67157 0.671573 7 1.5 7H25.5C26.3284 7 27 7.67157 27 8.5C27 9.32843 26.3284 10 25.5 10H1.5C0.671573 10 0 9.32843 0 8.5Z" fill="#C0C9D8"/>
<path fill-rule="evenodd" clip-rule="evenodd" d="M0 15.5C0 14.6716 0.671573 14 1.5 14H25.5C26.3284 14 27 14.6716 27 15.5C27 16.3284 26.3284 17 25.5 17H1.5C0.671573 17 0 16.3284 0 15.5Z" fill="#C0C9D8"/>
</svg>
