<svg width="20" height="20" viewBox="0 0 20 20" fill="none" xmlns="http://www.w3.org/2000/svg">
<path fill-rule="evenodd" clip-rule="evenodd" d="M18.2732 17.6184V1.12152C18.2732 0.503125 17.7701 0 17.1516 0H4.28414C3.6657 0 3.16258 0.503125 3.16258 1.12152V2.07672H2.71652C2.17066 2.07672 1.72656 2.52082 1.72656 3.06664C1.72656 3.6125 2.17066 4.0566 2.71652 4.0566H3.16258V5.54332H2.71652C2.17066 5.54332 1.72656 5.98742 1.72656 6.53328C1.72656 7.07914 2.17066 7.52324 2.71652 7.52324H3.16258V9.00996H2.71652C2.17066 9.00996 1.72656 9.45406 1.72656 9.99992C1.72656 10.5458 2.17066 10.9899 2.71652 10.9899H3.16258V12.4766H2.71652C2.17066 12.4766 1.72656 12.9207 1.72656 13.4666C1.72656 14.0124 2.17066 14.4565 2.71652 14.4565H3.16258V15.9432H2.71652C2.17066 15.9432 1.72656 16.3873 1.72656 16.9332C1.72656 17.479 2.17066 17.9231 2.71652 17.9231H3.16258V18.8783C3.16258 19.4967 3.6657 19.9998 4.28414 19.9998H17.1516C17.7701 19.9998 18.2732 19.4967 18.2732 18.8783V18V17.6184ZM17.6871 18.0048C17.6871 18.0032 17.6871 18.0016 17.6871 18V1.12156C17.6871 0.826289 17.4468 0.586133 17.1516 0.586133H6.73594V19.4139H17.1516C17.4469 19.4139 17.6871 19.1737 17.6871 18.8785V18.0048ZM2.3127 3.06668C2.3127 3.28934 2.49387 3.47051 2.71652 3.47051H4.19477C4.41742 3.47051 4.59859 3.28934 4.59859 3.06668C4.59859 2.84402 4.41742 2.66289 4.19477 2.66289H2.71652C2.49387 2.66289 2.3127 2.84402 2.3127 3.06668ZM2.3127 6.53336C2.3127 6.75602 2.49387 6.93719 2.71652 6.93719H4.19473C4.41738 6.93719 4.59855 6.75602 4.59855 6.53336C4.59855 6.3107 4.41738 6.12953 4.19473 6.12953H3.45637H3.45488H2.71652C2.49387 6.12953 2.3127 6.3107 2.3127 6.53336ZM2.3127 10C2.3127 10.2227 2.49387 10.4038 2.71652 10.4038H4.19477C4.41742 10.4038 4.59859 10.2227 4.59859 10C4.59859 9.77734 4.41742 9.59617 4.19477 9.59617H2.71652C2.49387 9.59617 2.3127 9.77734 2.3127 10ZM2.3127 13.4667C2.3127 13.6893 2.49387 13.8705 2.71652 13.8705H4.19477C4.41742 13.8705 4.59859 13.6893 4.59859 13.4667C4.59859 13.244 4.41742 13.0629 4.19477 13.0629H2.71652C2.49387 13.0629 2.3127 13.244 2.3127 13.4667ZM2.3127 16.9333C2.3127 17.156 2.49387 17.3371 2.71652 17.3371H4.19477C4.41742 17.3371 4.59859 17.156 4.59859 16.9333C4.59859 16.7107 4.41742 16.5295 4.19477 16.5295H2.71652C2.49387 16.5295 2.3127 16.7107 2.3127 16.9333ZM4.28414 19.4139H6.14984V0.586094H4.28414C3.98891 0.586094 3.74871 0.826289 3.74871 1.12152V2.07684H4.19477C4.74062 2.07684 5.18473 2.52094 5.18473 3.06676C5.18473 3.61262 4.74062 4.05672 4.19477 4.05672H3.74871V5.54344H4.19477C4.74062 5.54344 5.18473 5.98754 5.18473 6.5334C5.18473 7.07926 4.74062 7.52336 4.19477 7.52336H3.74871V9.01008H4.19477C4.74062 9.01008 5.18473 9.45418 5.18473 10C5.18473 10.5459 4.74062 10.99 4.19477 10.99H3.74871V12.4767H4.19477C4.74062 12.4767 5.18473 12.9208 5.18473 13.4667C5.18473 14.0125 4.74062 14.4566 4.19477 14.4566H3.74871V15.9434H4.19477C4.74062 15.9434 5.18473 16.3875 5.18473 16.9333C5.18473 17.4791 4.74062 17.9232 4.19477 17.9232H3.74871V18.8784C3.74871 19.1737 3.98891 19.4139 4.28414 19.4139ZM15.147 5.69635C15.147 5.08678 14.6511 4.59092 14.0415 4.59092H9.89668C9.28711 4.59092 8.79121 5.08682 8.79121 5.69635V5.95151C8.79121 5.9596 8.79154 5.96761 8.79218 5.97553C8.79151 5.9836 8.79117 5.99177 8.79117 6.00001V10.836C8.79117 11.4455 9.28711 11.9414 9.89664 11.9414H14.0415C14.6511 11.9414 15.147 11.4455 15.147 10.836L15.147 5.69635ZM9.37726 6.00001C9.37726 5.99193 9.37694 5.98392 9.37629 5.97599C9.37696 5.96792 9.3773 5.95976 9.3773 5.95151V5.69635C9.3773 5.40999 9.61027 5.17706 9.89664 5.17706H14.0415C14.3279 5.17706 14.5608 5.41003 14.5608 5.69635V10.0003C14.2131 9.56721 13.7606 9.22632 13.2411 9.0121C13.4389 8.74741 13.5561 8.41921 13.5561 8.06409C13.5561 7.18897 12.8441 6.47702 11.969 6.47702C11.0939 6.47702 10.382 7.18901 10.382 8.06409C10.382 8.41917 10.4992 8.74737 10.697 9.0121C10.1775 9.22632 9.725 9.56721 9.37726 10.0003V6.00001ZM11.9691 7.06315C12.5211 7.06315 12.9701 7.51218 12.9701 8.06413C12.9701 8.61608 12.521 9.06511 11.9691 9.06511C11.4171 9.06511 10.9681 8.61608 10.9681 8.06413C10.9681 7.51218 11.4171 7.06315 11.9691 7.06315ZM14.0415 11.3553H9.89668C9.69066 11.3553 9.51281 11.2344 9.42894 11.0601C9.74422 10.278 10.3969 9.68839 11.2051 9.45467C11.4319 9.57979 11.6923 9.65116 11.9691 9.65116C12.2459 9.65116 12.5063 9.57975 12.7331 9.45467C13.5413 9.68835 14.194 10.278 14.5093 11.0601C14.4254 11.2344 14.2475 11.3553 14.0415 11.3553ZM9.08436 13.2171H14.854C15.0159 13.2171 15.1471 13.3483 15.1471 13.5102C15.1471 13.672 15.0159 13.8032 14.854 13.8032H9.08436C8.92252 13.8032 8.79131 13.672 8.79131 13.5102C8.79131 13.3483 8.92252 13.2171 9.08436 13.2171ZM9.08436 14.8238H14.854C15.0159 14.8238 15.1471 14.955 15.1471 15.1168C15.1471 15.2787 15.0159 15.4099 14.854 15.4099H9.08436C8.92252 15.4099 8.79131 15.2787 8.79131 15.1168C8.79131 14.955 8.92252 14.8238 9.08436 14.8238Z" fill="#D63838"/>
</svg>
