<svg width="20" height="20" viewBox="0 0 20 20" fill="none" xmlns="http://www.w3.org/2000/svg">
<path fill-rule="evenodd" clip-rule="evenodd" d="M10 5C9.67947 5 9.4196 5.25987 9.4196 5.58041L9.41957 9.4196H5.58042C5.25987 9.4196 5 9.67947 5 10C5 10.3206 5.25987 10.5804 5.58042 10.5804H9.41957V14.4196C9.41957 14.7401 9.67944 15 9.99998 15C10.3205 15 10.5804 14.7401 10.5804 14.4196V10.5804H14.4196C14.7401 10.5804 15 10.3206 15 10C15 9.67947 14.7401 9.4196 14.4196 9.4196H10.5804L10.5804 5.58041C10.5804 5.25987 10.3206 5 10 5Z" fill="#5265CC"/>
<circle cx="10" cy="10" r="7.5" stroke="#5265CC"/>
</svg>
