<svg width="24" height="24" viewBox="0 0 24 24" fill="none" xmlns="http://www.w3.org/2000/svg">
<g clip-path="url(#clip0)">
<path d="M15.1519 8.77312V7.62562C15.7875 7.56094 16.3765 7.26287 16.8051 6.78906C17.2337 6.31524 17.4714 5.69933 17.4722 5.06044V0.327563C17.4721 0.240621 17.4375 0.157276 17.3759 0.0958518C17.3144 0.0344273 17.231 -4.97126e-05 17.1441 5.38022e-08H15.6094C15.5663 -2.45941e-05 15.5236 0.00844579 15.4838 0.0249269C15.444 0.041408 15.4078 0.0655765 15.3773 0.0960507C15.3468 0.126525 15.3227 0.162707 15.3062 0.202528C15.2897 0.242349 15.2812 0.285028 15.2812 0.328125V2.51831C14.6133 2.64187 13.979 2.9049 13.4196 3.29025C12.8603 3.67559 12.3885 4.17458 12.0351 4.75462C11.6817 4.17458 11.2099 3.6756 10.6506 3.29025C10.0913 2.90491 9.45695 2.64187 8.78906 2.51831V0.327563C8.78891 0.240636 8.75428 0.15732 8.69276 0.0959067C8.63124 0.0344929 8.54786 -7.39271e-08 8.46094 5.38022e-08H6.92606C6.83904 5.38022e-08 6.75558 0.0345703 6.69404 0.0961056C6.63251 0.157641 6.59794 0.241101 6.59794 0.328125V5.06044C6.59897 5.68684 6.82783 6.29148 7.24183 6.76157C7.65583 7.23167 8.22669 7.53511 8.84794 7.61531V8.77312C5.2005 12.5813 3.53906 19.1625 3.53906 23.6713C3.53906 23.7583 3.57363 23.8418 3.63517 23.9033C3.6967 23.9649 3.78016 23.9994 3.86719 23.9994H20.1328C20.1759 23.9995 20.2186 23.991 20.2584 23.9745C20.2982 23.958 20.3344 23.9339 20.3649 23.9034C20.3954 23.8729 20.4195 23.8367 20.436 23.7969C20.4525 23.7571 20.461 23.7144 20.4609 23.6713C20.4609 19.1625 18.7993 12.5813 15.1519 8.77312ZM9.50419 7.63856H14.4956V8.57606H9.50419V7.63856ZM15.9375 2.442V0.65625H16.8159V2.4375H16.1597C16.0875 2.43619 16.0125 2.4375 15.9375 2.442ZM7.25419 0.65625H8.13281V2.44256C8.05706 2.43881 7.98294 2.43688 7.91044 2.43675H7.25419V0.65625ZM7.25419 5.061V3.09225H7.91044C7.9965 3.09225 8.08181 3.09656 8.16694 3.10181C8.24831 3.10744 8.33231 3.11513 8.421 3.12619H8.4225C9.14146 3.215 9.82491 3.48943 10.4056 3.92251C10.9863 4.35558 11.4443 4.93236 11.7345 5.59613C11.76 5.65466 11.802 5.70449 11.8554 5.73948C11.9088 5.77447 11.9713 5.79311 12.0352 5.79311C12.099 5.79311 12.1615 5.77447 12.2149 5.73948C12.2683 5.70449 12.3103 5.65466 12.3358 5.59613C12.6259 4.93237 13.0839 4.35559 13.6646 3.92254C14.2453 3.4895 14.9287 3.21511 15.6476 3.12637H15.6493C15.738 3.11531 15.822 3.10763 15.9034 3.102C15.9885 3.09675 16.0738 3.09244 16.1597 3.09244H16.8159V5.06119C16.8154 5.57075 16.6128 6.0593 16.2525 6.41961C15.8922 6.77992 15.4036 6.98257 14.8941 6.98306H9.17531C8.66577 6.98232 8.17733 6.77947 7.81716 6.41903C7.457 6.05858 7.25453 5.56998 7.25419 5.06044V5.061ZM4.19831 23.3438C4.28063 18.8488 6.03469 12.6643 9.31594 9.23362H14.6841C17.9653 12.6649 19.7196 18.8488 19.8015 23.3438H4.19831Z" fill="#3F4D64"/>
<path d="M13.7841 10.5297C13.7513 10.5576 13.7242 10.5917 13.7046 10.6301C13.6849 10.6684 13.673 10.7103 13.6695 10.7532C13.666 10.7962 13.6711 10.8394 13.6843 10.8804C13.6975 10.9214 13.7187 10.9595 13.7466 10.9923C14.5146 11.9208 15.1637 12.9416 15.6788 14.0309C15.6976 14.0697 15.7239 14.1044 15.7562 14.133C15.7884 14.1616 15.826 14.1835 15.8667 14.1976C15.9075 14.2117 15.9506 14.2176 15.9936 14.2151C16.0367 14.2125 16.0788 14.2015 16.1175 14.1826C16.1563 14.1638 16.191 14.1375 16.2196 14.1052C16.2482 14.073 16.2701 14.0354 16.2842 13.9946C16.2983 13.9539 16.3042 13.9108 16.3017 13.8678C16.2991 13.8247 16.2881 13.7826 16.2692 13.7439C15.7297 12.6051 15.0502 11.5382 14.2465 10.5678C14.1902 10.5015 14.1098 10.4602 14.0232 10.4531C13.9365 10.446 13.8505 10.4735 13.7841 10.5297Z" fill="#3F4D64"/>
</g>
<defs>
<clipPath id="clip0">
<rect width="24" height="24" fill="white"/>
</clipPath>
</defs>
</svg>
