<svg width="10" height="10" viewBox="0 0 10 10" fill="none" xmlns="http://www.w3.org/2000/svg">
<path d="M7.51408 0L1.19326 6.32084L0 10L3.67918 8.80676L10 2.48592L7.51408 0ZM9.17137 2.48592L8.34272 3.31457L6.68543 1.65729L7.51406 0.828633L9.17137 2.48592ZM1.58131 7.02363L2.97637 8.41871L2.35066 8.62164L1.37836 7.64934L1.58131 7.02363ZM1.86453 6.47822L6.27111 2.07162L6.8926 2.69311L2.486 7.09969L1.86453 6.47822ZM2.90031 7.514L7.30691 3.10738L7.9284 3.72887L3.5218 8.13549L2.90031 7.514ZM1.17545 8.27504L1.72498 8.82457L0.91166 9.08834L1.17545 8.27504Z" fill="#3F4D64"/>
</svg>
