<svg width="24" height="24" viewBox="0 0 24 24" fill="none" xmlns="http://www.w3.org/2000/svg">
<path fill-rule="evenodd" clip-rule="evenodd" d="M12 6C11.6154 6 11.3035 6.31184 11.3035 6.6965L11.3035 11.3035H6.6965C6.31184 11.3035 6 11.6154 6 12C6 12.3847 6.31184 12.6965 6.6965 12.6965H11.3035V17.3035C11.3035 17.6882 11.6153 18 12 18C12.3846 18 12.6965 17.6882 12.6965 17.3035V12.6965H17.3035C17.6882 12.6965 18 12.3847 18 12C18 11.6154 17.6882 11.3035 17.3035 11.3035H12.6965L12.6965 6.6965C12.6965 6.31184 12.3847 6 12 6Z" fill="#5265CC"/>
<circle cx="11.9999" cy="12" r="9.1" stroke="#5265CC"/>
</svg>
