<svg width="24" height="24" viewBox="0 0 24 24" fill="none" xmlns="http://www.w3.org/2000/svg">
<path d="M22.4348 9.3913H20.4814C20.3176 8.85652 20.1031 8.34 19.8428 7.848L21.2228 6.468C21.5181 6.1727 21.6809 5.7793 21.6809 5.36035C21.6809 4.94191 21.5181 4.54852 21.2228 4.25322L19.7463 2.7767C19.1562 2.18661 18.1231 2.18504 17.532 2.7767L16.152 4.1567C15.6605 3.89635 15.1435 3.68243 14.6087 3.51809V1.56522C14.6087 0.702261 13.9064 0 13.0435 0H10.9565C10.0936 0 9.3913 0.702261 9.3913 1.56522V3.51861C8.85652 3.68296 8.34 3.89687 7.848 4.15722L6.46748 2.77722C5.85704 2.16678 4.86365 2.16678 4.25322 2.77722L2.77617 4.25374C2.16626 4.86417 2.16626 5.85757 2.77617 6.468L4.15617 7.84852C3.89583 8.34 3.68191 8.85704 3.51757 9.39183H1.56522C0.702261 9.39183 0 10.0941 0 10.957V13.044C0 13.9064 0.702261 14.6087 1.56522 14.6087H3.51861C3.68296 15.1435 3.89687 15.66 4.15722 16.152L2.77722 17.5325C2.16678 18.143 2.16678 19.1363 2.77722 19.7468L4.25374 21.2238C4.86417 21.8337 5.85757 21.8337 6.468 21.2238L7.84852 19.8438C8.34 20.1042 8.85704 20.3181 9.39183 20.4824V22.4348C9.39183 23.2977 10.0941 24 10.957 24H13.044C13.907 24 14.6092 23.2977 14.6092 22.4348V20.4814C15.144 20.317 15.661 20.1031 16.1525 19.8428L17.5325 21.2233C18.1242 21.8144 19.1572 21.8134 19.7468 21.2233L21.2233 19.7468C21.5186 19.4515 21.6814 19.0581 21.6814 18.6397C21.6814 18.2207 21.5186 17.8278 21.2233 17.5325L19.8433 16.152C20.1037 15.6605 20.3176 15.1435 20.4819 14.6087H22.4348C23.2977 14.6087 24 13.9064 24 13.0435V10.9565C24 10.0936 23.2977 9.3913 22.4348 9.3913ZM22.9565 13.0435C22.9565 13.331 22.7228 13.5652 22.4348 13.5652H20.087C19.849 13.5652 19.6414 13.7264 19.5819 13.9565C19.3972 14.6687 19.116 15.3485 18.745 15.9767C18.6245 16.1817 18.6574 16.4426 18.8254 16.6106L20.4845 18.2703C20.5826 18.3683 20.6369 18.4993 20.6369 18.6397C20.6369 18.78 20.5826 18.911 20.4845 19.009L19.008 20.4856C18.8118 20.6817 18.4659 20.6817 18.2692 20.4856L16.6101 18.8264C16.4421 18.6579 16.1812 18.6256 15.9757 18.7461C15.3485 19.1165 14.6687 19.3983 13.956 19.5824C13.7264 19.6414 13.5652 19.849 13.5652 20.087V22.4348C13.5652 22.7223 13.3315 22.9565 13.0435 22.9565H10.9565C10.669 22.9565 10.4348 22.7223 10.4348 22.4348V20.087C10.4348 19.849 10.2736 19.6414 10.0435 19.5819C9.3313 19.3977 8.65148 19.1165 8.0233 18.7456C7.94087 18.6965 7.84957 18.673 7.75826 18.673C7.62313 18.673 7.48956 18.7252 7.38887 18.8259L5.72974 20.485C5.52574 20.6885 5.19496 20.6885 4.99096 20.485L3.51443 19.0085C3.31043 18.8045 3.31043 18.4732 3.51443 18.2697L5.17357 16.6106C5.34209 16.4421 5.37496 16.1812 5.25391 15.9767C4.88348 15.3485 4.60174 14.6692 4.41757 13.9565C4.35861 13.7264 4.15096 13.5652 3.91304 13.5652H1.56522C1.27774 13.5652 1.04348 13.331 1.04348 13.0435V10.9565C1.04348 10.669 1.27774 10.4348 1.56522 10.4348H3.91304C4.15096 10.4348 4.35861 10.2736 4.41809 10.0435C4.60226 9.3313 4.88348 8.65148 5.25443 8.0233C5.37548 7.81826 5.34261 7.55739 5.17409 7.38939L3.51496 5.73026C3.31148 5.52678 3.31148 5.19548 3.51496 4.99148L4.99148 3.51496C5.19548 3.31096 5.52626 3.31148 5.73026 3.51496L7.38939 5.17409C7.55791 5.34261 7.81826 5.376 8.0233 5.25443C8.65148 4.884 9.33078 4.60226 10.0435 4.41809C10.2736 4.35861 10.4348 4.15096 10.4348 3.91304V1.56522C10.4348 1.27774 10.669 1.04348 10.9565 1.04348H13.0435C13.3315 1.04348 13.5652 1.27774 13.5652 1.56522V3.91304C13.5652 4.15096 13.7264 4.35861 13.9565 4.41809C14.6692 4.60226 15.349 4.884 15.9762 5.25443C16.1817 5.37548 16.4426 5.34313 16.6106 5.17409L18.2697 3.51496C18.4664 3.31774 18.8123 3.31826 19.0085 3.51496L20.485 4.99148C20.5831 5.08957 20.6374 5.22104 20.6374 5.36087C20.6374 5.5007 20.5831 5.63217 20.485 5.73026L18.8259 7.38939C18.6579 7.55791 18.6245 7.81878 18.7456 8.0233C19.1165 8.65148 19.3977 9.33078 19.5824 10.0435C19.6414 10.2736 19.849 10.4348 20.087 10.4348H22.4348C22.7228 10.4348 22.9565 10.669 22.9565 10.9565V13.0435Z" fill="#C0C9D8"/>
<path d="M11.9998 7.30432C9.41098 7.30432 7.3042 9.4111 7.3042 12C7.3042 14.5888 9.41098 16.6956 11.9998 16.6956C14.5892 16.6956 16.6955 14.5888 16.6955 12C16.6955 9.4111 14.5892 7.30432 11.9998 7.30432ZM11.9998 15.6521C9.98594 15.6521 8.34768 14.0139 8.34768 12C8.34768 9.98606 9.98594 8.3478 11.9998 8.3478C14.0132 8.3478 15.652 9.98606 15.652 12C15.652 14.0139 14.0132 15.6521 11.9998 15.6521Z" fill="#C0C9D8"/>
</svg>
