<svg width="24" height="24" viewBox="0 0 24 24" fill="none" xmlns="http://www.w3.org/2000/svg">
<path d="M18.3344 23.351H5.66567C5.19609 23.3504 4.74589 23.1637 4.41385 22.8316C4.08181 22.4996 3.89505 22.0494 3.89453 21.5798V11.699C3.89453 9.54924 4.7485 7.48757 6.26858 5.96749C7.78866 4.44742 9.85033 3.59344 12 3.59344C14.1498 3.59344 16.2114 4.44742 17.7315 5.96749C19.2516 7.48757 20.1056 9.54924 20.1056 11.699V21.5798C20.105 22.0494 19.9183 22.4996 19.5862 22.8316C19.2542 23.1637 18.804 23.3504 18.3344 23.351ZM12 4.24209C10.023 4.24433 8.12766 5.03067 6.72971 6.42862C5.33176 7.82657 4.54541 9.72196 4.54318 11.699V21.5798C4.54352 21.8774 4.6619 22.1627 4.87233 22.3732C5.08276 22.5836 5.36807 22.702 5.66567 22.7023H18.3344C18.632 22.702 18.9173 22.5836 19.1278 22.3732C19.3382 22.1627 19.4566 21.8774 19.4569 21.5798V11.699C19.4547 9.72196 18.6683 7.82657 17.2704 6.42862C15.8724 5.03067 13.977 4.24433 12 4.24209Z" fill="#3F4D64"/>
<path d="M17.5224 23.3517C17.4363 23.3517 17.3538 23.3175 17.293 23.2567C17.2322 23.1958 17.198 23.1133 17.198 23.0273V14.9348C17.197 14.5835 17.0567 14.2469 16.8078 13.9989C16.559 13.7509 16.2219 13.6117 15.8706 13.6119H8.12992C7.77859 13.6117 7.44153 13.7509 7.19267 13.9989C6.94382 14.2469 6.80349 14.5835 6.80246 14.9348V23.0273C6.80246 23.1133 6.76829 23.1958 6.70747 23.2567C6.64664 23.3175 6.56415 23.3517 6.47813 23.3517C6.39212 23.3517 6.30962 23.3175 6.2488 23.2567C6.18798 23.1958 6.15381 23.1133 6.15381 23.0273V14.9348C6.15501 14.4115 6.36374 13.91 6.7342 13.5404C7.10466 13.1708 7.60661 12.9632 8.12992 12.9632H15.8709C16.3942 12.9632 16.8961 13.1708 17.2666 13.5404C17.6371 13.91 17.8458 14.4115 17.847 14.9348V23.0273C17.847 23.07 17.8386 23.1122 17.8223 23.1515C17.806 23.1909 17.782 23.2267 17.7519 23.2568C17.7217 23.2869 17.6859 23.3108 17.6466 23.3271C17.6072 23.3433 17.565 23.3517 17.5224 23.3517Z" fill="#3F4D64"/>
<path d="M17.5215 16.7881H6.47764C6.39163 16.7881 6.30914 16.7539 6.24831 16.6931C6.18749 16.6323 6.15332 16.5498 6.15332 16.4638C6.15332 16.3777 6.18749 16.2953 6.24831 16.2344C6.30914 16.1736 6.39163 16.1394 6.47764 16.1394H17.5215C17.6076 16.1394 17.69 16.1736 17.7509 16.2344C17.8117 16.2953 17.8459 16.3777 17.8459 16.4638C17.8459 16.5498 17.8117 16.6323 17.7509 16.6931C17.69 16.7539 17.6076 16.7881 17.5215 16.7881Z" fill="#3F4D64"/>
<path d="M16.1639 18.8162H13.9056C13.8567 18.8163 13.8084 18.8054 13.7643 18.7842C13.7202 18.7629 13.6814 18.732 13.651 18.6937C13.6205 18.6554 13.5992 18.6107 13.5884 18.5629C13.5777 18.5152 13.578 18.4656 13.5891 18.418L14.0655 16.389C14.0823 16.3178 14.1226 16.2543 14.18 16.2089C14.2373 16.1636 14.3083 16.1389 14.3814 16.1389H15.6875C15.7606 16.1389 15.8316 16.1636 15.889 16.2089C15.9463 16.2543 15.9866 16.3178 16.0034 16.389L16.4798 18.418C16.491 18.4656 16.4913 18.5151 16.4806 18.5629C16.47 18.6106 16.4487 18.6553 16.4183 18.6937C16.3879 18.732 16.3492 18.763 16.3052 18.7843C16.2611 18.8055 16.2128 18.8166 16.1639 18.8165V18.8162ZM14.3153 18.1676H15.7549L15.4306 16.7872H14.6389L14.3153 18.1676Z" fill="#3F4D64"/>
<path d="M16.006 5.35389C15.92 5.35389 15.8375 5.31972 15.7767 5.2589C15.7159 5.19807 15.6817 5.11558 15.6817 5.02956V2.1194C15.6814 1.90137 15.5947 1.69235 15.4405 1.53821C15.2863 1.38408 15.0772 1.29741 14.8592 1.29724H9.14073C8.92276 1.2975 8.71379 1.3842 8.55966 1.53833C8.40553 1.69246 8.31883 1.90143 8.31857 2.1194V5.02956C8.31857 5.11558 8.2844 5.19807 8.22358 5.2589C8.16276 5.31972 8.08026 5.35389 7.99425 5.35389C7.90823 5.35389 7.82574 5.31972 7.76491 5.2589C7.70409 5.19807 7.66992 5.11558 7.66992 5.02956V2.1194C7.67035 1.72945 7.82545 1.35559 8.10119 1.07985C8.37692 0.804117 8.75078 0.649019 9.14073 0.64859H14.8592C15.2492 0.649019 15.623 0.804117 15.8988 1.07985C16.1745 1.35559 16.3296 1.72945 16.33 2.1194V5.02956C16.33 5.11552 16.2959 5.19797 16.2352 5.25878C16.1744 5.31959 16.092 5.3538 16.006 5.35389Z" fill="#3F4D64"/>
<path d="M14.655 4.71032C14.569 4.71032 14.4865 4.67615 14.4257 4.61533C14.3649 4.55451 14.3307 4.47202 14.3307 4.386V2.77508C14.3307 2.76158 14.3253 2.74863 14.3158 2.73908C14.3062 2.72953 14.2933 2.72416 14.2798 2.72416H9.71975C9.70636 2.72425 9.69354 2.72961 9.68407 2.73908C9.6746 2.74855 9.66924 2.76137 9.66916 2.77476V4.38567C9.66916 4.47169 9.63499 4.55418 9.57417 4.61501C9.51334 4.67583 9.43085 4.71 9.34483 4.71C9.25882 4.71 9.17632 4.67583 9.1155 4.61501C9.05468 4.55418 9.02051 4.47169 9.02051 4.38567V2.77508C9.02068 2.58965 9.09439 2.41187 9.22548 2.28072C9.35657 2.14957 9.53432 2.07577 9.71975 2.07552H14.2798C14.4651 2.07577 14.6428 2.14953 14.7739 2.2806C14.905 2.41168 14.9788 2.58939 14.979 2.77476V4.38567C14.9791 4.42827 14.9707 4.47045 14.9544 4.50981C14.9382 4.54918 14.9143 4.58496 14.8842 4.6151C14.8542 4.64525 14.8184 4.66917 14.7791 4.68551C14.7398 4.70185 14.6976 4.71028 14.655 4.71032Z" fill="#3F4D64"/>
<path d="M20.8487 20.5989H19.7814C19.6953 20.5989 19.6128 20.5648 19.552 20.5039C19.4912 20.4431 19.457 20.3606 19.457 20.2746V15.7753C19.457 15.6892 19.4912 15.6067 19.552 15.5459C19.6128 15.4851 19.6953 15.4509 19.7814 15.4509H21.8272C21.9132 15.4509 21.9957 15.4851 22.0565 15.5459C22.1174 15.6067 22.1515 15.6892 22.1515 15.7753V19.2955C22.1511 19.6409 22.0137 19.9721 21.7695 20.2165C21.5253 20.4608 21.1942 20.5983 20.8487 20.5989ZM20.1057 19.9503H20.8487C21.0224 19.9501 21.1889 19.881 21.3118 19.7582C21.4346 19.6354 21.5037 19.4689 21.5038 19.2952V16.0996H20.1057V19.9503Z" fill="#3F4D64"/>
<path d="M4.21879 20.5989H3.15144C2.80576 20.5986 2.47434 20.4611 2.22991 20.2167C1.98547 19.9723 1.848 19.6408 1.84766 19.2952V15.7753C1.84766 15.6892 1.88183 15.6067 1.94265 15.5459C2.00347 15.4851 2.08596 15.4509 2.17198 15.4509H4.21879C4.30481 15.4509 4.3873 15.4851 4.44812 15.5459C4.50895 15.6067 4.54312 15.6892 4.54312 15.7753V20.2746C4.54312 20.3606 4.50895 20.4431 4.44812 20.5039C4.3873 20.5648 4.30481 20.5989 4.21879 20.5989ZM2.49728 16.0996V19.2955C2.49745 19.4692 2.56653 19.6357 2.68935 19.7585C2.81218 19.8814 2.97871 19.9504 3.15241 19.9506H3.89544V16.0996H2.49728Z" fill="#3F4D64"/>
<path d="M13.5705 9.41203H10.227C9.90702 9.41203 9.60014 9.28492 9.37388 9.05866C9.14762 8.8324 9.02051 8.52552 9.02051 8.20554C9.02051 7.88556 9.14762 7.57869 9.37388 7.35243C9.60014 7.12617 9.90702 6.99905 10.227 6.99905H13.5705C13.7289 6.99905 13.8858 7.03026 14.0322 7.09089C14.1785 7.15152 14.3115 7.24039 14.4236 7.35243C14.5356 7.46446 14.6245 7.59746 14.6851 7.74384C14.7457 7.89022 14.7769 8.0471 14.7769 8.20554C14.7769 8.36398 14.7457 8.52087 14.6851 8.66724C14.6245 8.81362 14.5356 8.94662 14.4236 9.05866C14.3115 9.17069 14.1785 9.25956 14.0322 9.32019C13.8858 9.38082 13.7289 9.41203 13.5705 9.41203ZM10.227 7.6477C10.079 7.6477 9.93716 7.70647 9.83254 7.81109C9.72793 7.9157 9.66916 8.05759 9.66916 8.20554C9.66916 8.35349 9.72793 8.49538 9.83254 8.59999C9.93716 8.70461 10.079 8.76338 10.227 8.76338H13.5705C13.7184 8.76338 13.8603 8.70461 13.9649 8.59999C14.0695 8.49538 14.1283 8.35349 14.1283 8.20554C14.1283 8.05759 14.0695 7.9157 13.9649 7.81109C13.8603 7.70647 13.7184 7.6477 13.5705 7.6477H10.227Z" fill="#3F4D64"/>
</svg>
