<svg width="24" height="24" viewBox="0 0 24 24" fill="none" xmlns="http://www.w3.org/2000/svg">
<path d="M22.5 6.73529H17.754C18.0945 6.50279 18.387 6.27179 18.591 6.06479C19.8 4.84829 19.8 2.86829 18.591 1.65179C17.4165 0.469789 15.3675 0.468289 14.1915 1.65179C13.542 2.30429 11.8155 4.96079 12.054 6.73529H11.946C12.183 4.96079 10.458 2.30429 9.8085 1.65179C8.6325 0.468289 6.5835 0.469789 5.409 1.65179C4.2 2.86829 4.2 4.84829 5.4075 6.06479C5.613 6.27179 5.9055 6.50279 6.246 6.73529H1.5C0.6735 6.73529 0 7.40879 0 8.23529V11.9853C0 12.3993 0.336 12.7353 0.75 12.7353H1.5V21.7353C1.5 22.5618 2.1735 23.2353 3 23.2353H21C21.8265 23.2353 22.5 22.5618 22.5 21.7353V12.7353H23.25C23.664 12.7353 24 12.3993 24 11.9853V8.23529C24 7.40879 23.3265 6.73529 22.5 6.73529ZM6.4725 2.70929C6.777 2.40329 7.1805 2.23529 7.6095 2.23529C8.037 2.23529 8.4405 2.40329 8.745 2.70929C9.756 3.72629 10.761 6.32429 10.4115 6.68579C10.4115 6.68579 10.3485 6.73529 10.134 6.73529C9.0975 6.73529 7.119 5.65829 6.4725 5.00729C5.844 4.37429 5.844 3.34229 6.4725 2.70929ZM11.25 21.7353H3V12.7353H11.25V21.7353ZM11.25 11.2353H1.5V8.23529H10.134H11.25V11.2353ZM15.255 2.70929C15.864 2.09879 16.92 2.10029 17.5275 2.70929C18.156 3.34229 18.156 4.37429 17.5275 5.00729C16.881 5.65829 14.9025 6.73529 13.866 6.73529C13.6515 6.73529 13.5885 6.68729 13.587 6.68579C13.239 6.32429 14.244 3.72629 15.255 2.70929ZM21 21.7353H12.75V12.7353H21V21.7353ZM22.5 11.2353H12.75V8.23529H13.866H22.5V11.2353Z" fill="#C0C9D8"/>
</svg>
