<svg width="24" height="24" viewBox="0 0 24 24" fill="none" xmlns="http://www.w3.org/2000/svg">
<path fill-rule="evenodd" clip-rule="evenodd" d="M22.5 22.2439C22.5 19.4397 21.4074 16.8021 19.4246 14.8193C18.397 13.7916 17.193 13.0034 15.8807 12.4822C17.2807 11.3491 18.1784 9.61697 18.1784 7.67835C18.1784 4.27139 15.407 1.5 12 1.5C8.59304 1.5 5.82165 4.27139 5.82165 7.67835C5.82165 9.61698 6.71934 11.3491 8.11931 12.4822C6.80705 13.0034 5.60303 13.7916 4.57539 14.8193C2.59255 16.8021 1.5 19.4397 1.5 22.2439V22.5H3.6128V22.2439C3.6128 17.6194 7.3755 13.8567 12 13.8567C16.6245 13.8567 20.3872 17.6194 20.3872 22.2439V22.5H22.5V22.2439ZM12 11.7439C9.75849 11.7439 7.93445 9.9199 7.93445 7.67835C7.93445 5.43681 9.75849 3.6128 12 3.6128C14.2415 3.6128 16.0655 5.43681 16.0655 7.67835C16.0655 9.9199 14.2415 11.7439 12 11.7439Z" fill="#C0C9D8"/>
</svg>
