<svg width="18" height="18" viewBox="0 0 18 18" fill="none" xmlns="http://www.w3.org/2000/svg">
<g clip-path="url(#clip0)">
<path d="M17.4368 8.43762H10.312C10.0015 8.43762 9.74951 8.18563 9.74951 7.87514C9.74951 7.56464 10.0015 7.31265 10.312 7.31265H17.4368C17.7473 7.31265 17.9993 7.56464 17.9993 7.87514C17.9993 8.18563 17.7473 8.43762 17.4368 8.43762Z" fill="#3F4D64"/>
<path d="M14.6244 11.2505C14.4803 11.2505 14.3364 11.1957 14.2268 11.0856C14.0071 10.8657 14.0071 10.5095 14.2268 10.2898L16.6418 7.87494L14.2268 5.45994C14.0071 5.24022 14.0071 4.884 14.2268 4.66428C14.4467 4.44443 14.8029 4.44443 15.0226 4.66428L17.835 7.47669C18.0547 7.69641 18.0547 8.05264 17.835 8.27235L15.0226 11.0848C14.9123 11.1957 14.7684 11.2505 14.6244 11.2505Z" fill="#3F4D64"/>
<path d="M5.99986 18.0004C5.83933 18.0004 5.68703 17.9779 5.53488 17.9307L1.02142 16.427C0.407305 16.2125 0 15.6402 0 15.0006V1.50099C0 0.673746 0.672754 0.000991821 1.5 0.000991821C1.66039 0.000991821 1.81269 0.0235131 1.96498 0.0707528L6.4783 1.57446C7.09255 1.78896 7.49972 2.36119 7.49972 3.00085V16.5004C7.49972 17.3277 6.8271 18.0004 5.99986 18.0004ZM1.5 1.12596C1.29374 1.12596 1.12496 1.29473 1.12496 1.50099V15.0006C1.12496 15.1603 1.23222 15.3087 1.3852 15.362L5.8775 16.859C5.90977 16.8694 5.95179 16.8755 5.99986 16.8755C6.20612 16.8755 6.37475 16.7067 6.37475 16.5004V3.00085C6.37475 2.84114 6.2675 2.6927 6.11452 2.63941L1.62222 1.14244C1.58995 1.132 1.54793 1.12596 1.5 1.12596Z" fill="#3F4D64"/>
<path d="M11.4371 6.00073C11.1266 6.00073 10.8746 5.74874 10.8746 5.43825V2.06335C10.8746 1.5466 10.454 1.12583 9.93722 1.12583H1.49998C1.18949 1.12583 0.9375 0.873844 0.9375 0.563352C0.9375 0.252861 1.18949 0.000869751 1.49998 0.000869751H9.93722C11.075 0.000869751 11.9996 0.925615 11.9996 2.06335V5.43825C11.9996 5.74874 11.7476 6.00073 11.4371 6.00073Z" fill="#3F4D64"/>
<path d="M9.93699 15.7499H6.93699C6.6265 15.7499 6.37451 15.498 6.37451 15.1875C6.37451 14.877 6.6265 14.625 6.93699 14.625H9.93699C10.4537 14.625 10.8744 14.2042 10.8744 13.6875V10.3126C10.8744 10.0021 11.1264 9.75009 11.4369 9.75009C11.7473 9.75009 11.9993 10.0021 11.9993 10.3126V13.6875C11.9993 14.8252 11.0747 15.7499 9.93699 15.7499Z" fill="#3F4D64"/>
</g>
<defs>
<clipPath id="clip0">
<rect width="18" height="18" fill="white"/>
</clipPath>
</defs>
</svg>
