<svg width="24" height="24" viewBox="0 0 24 24" fill="none" xmlns="http://www.w3.org/2000/svg">
<path d="M12.5 20H1V1H18V8.5M12.5 20V13H15.5M12.5 20V23H23V13H20M18 8.5C16 8.5 15.5 9.5 15.5 10V13M18 8.5C18.6667 8.5 20 8.8 20 10C20 11.2 20 12.5 20 13M15.5 13H20M15.5 13V15.5M20 13V15.5" stroke="#3F4D64" stroke-width="1.3"/>
<path d="M8.5 4H15M3.5 4L4.5 5L6.5 3" stroke="#3F4D64" stroke-width="1.3"/>
<path d="M8.5 8H13M3.5 8L4.5 9L6.5 7" stroke="#3F4D64" stroke-width="1.3"/>
<path d="M8.5 12H10.5M3.5 12L4.5 13L6.5 11" stroke="#3F4D64" stroke-width="1.3"/>
</svg>
