<svg width="24" height="24" viewBox="0 0 24 24" fill="none" xmlns="http://www.w3.org/2000/svg">
<g clip-path="url(#clip0)">
<path d="M23.9054 17.8438C23.6224 16.956 22.7909 16.4167 22.1433 16.1206C20.8128 15.5123 19.3536 14.2187 18.0484 12.7413L18.2432 12.6218C18.4107 12.5189 18.4632 12.2995 18.3603 12.132C18.2574 11.9643 18.0381 11.912 17.8705 12.0148L17.5787 12.194C17.4081 11.9896 17.2411 11.7829 17.0781 11.5752L17.3679 11.3869C17.5328 11.2798 17.5796 11.0592 17.4724 10.8943C17.3652 10.7293 17.1445 10.6825 16.9797 10.7897L16.6445 11.0076C16.4569 10.755 16.2762 10.5025 16.1037 10.2524L16.3525 10.0979C16.5196 9.99414 16.5709 9.77457 16.4671 9.60751C16.3632 9.44035 16.1437 9.38907 15.9766 9.49295L15.7077 9.66006C15.2383 8.93495 14.8494 8.24584 14.5734 7.64959C14.5335 7.54262 14.1938 6.56161 14.8711 5.88436C15.0101 5.74528 15.0101 5.51977 14.871 5.38074C14.732 5.24166 14.5065 5.24166 14.3674 5.38074C13.6373 6.11086 13.6988 7.04129 13.8077 7.54969C13.382 7.67054 12.5813 7.87102 11.6819 7.96102C9.54821 8.17468 8.49962 7.61902 7.99594 7.1153C6.1658 5.28521 6.04711 3.46144 6.04617 3.44447C6.03919 3.29512 5.93967 3.16612 5.79708 3.12136C5.65439 3.07659 5.49909 3.12562 5.40802 3.24422L0.073678 10.1887C0.0131154 10.2677 -0.0117284 10.3682 0.00519351 10.4663C0.0221154 10.5643 0.0792562 10.6507 0.162788 10.7047C0.262444 10.7692 10.1633 17.1685 12.9534 18.8625C15.2242 20.2412 18.3104 20.8946 20.6734 20.8945C21.3869 20.8945 22.0348 20.8349 22.574 20.7177C22.6626 20.6984 22.7405 20.6461 22.7919 20.5714L23.8989 18.9611C23.8997 18.96 23.9002 18.9587 23.901 18.9575C23.9096 18.9447 23.9173 18.9314 23.9242 18.9176C23.9256 18.915 23.9266 18.9125 23.9278 18.9098C23.9339 18.8968 23.9392 18.8834 23.9437 18.8697C23.9442 18.8683 23.9449 18.867 23.9453 18.8656C23.9456 18.8646 23.9462 18.8625 23.9466 18.8612C23.9471 18.8597 23.9475 18.8582 23.948 18.8567C23.97 18.7819 24.0743 18.3733 23.9054 17.8438ZM8.51752 13.7538C11.2426 15.4959 13.1075 16.6729 14.0606 17.2521C16.3314 18.6309 19.4176 19.2842 21.7805 19.2842C22.1565 19.2842 22.5136 19.2672 22.8468 19.2343L22.2863 20.0496C21.1768 20.2623 19.6512 20.2248 18.0694 19.9436C16.2795 19.6254 14.5939 19.0252 13.3231 18.2537C10.8282 16.739 2.61304 11.4392 0.873836 10.3162L1.63227 9.32884C4.17108 10.9673 6.13285 12.2268 7.34363 13.0026C7.40311 13.0407 7.46958 13.0589 7.5354 13.0589C7.65272 13.0589 7.76757 13.0009 7.83554 12.8948C7.94166 12.7292 7.89348 12.509 7.72782 12.4029C7.19152 12.0592 6.50757 11.6205 5.69166 11.0961C6.06441 10.4097 6.26021 9.64075 6.26021 8.85151C6.26021 7.75665 5.87616 6.69015 5.17889 5.84846C5.05336 5.69696 4.82883 5.67596 4.67742 5.80139C4.52602 5.92688 4.50492 6.15141 4.63041 6.30282C5.22211 7.01701 5.54799 7.92216 5.54799 8.85146C5.54799 9.50364 5.39025 10.1391 5.09034 10.7095C4.20778 10.1419 3.195 9.48967 2.06756 8.76207L5.48775 4.30936C5.70553 5.10206 6.23044 6.35705 7.49218 7.61879C9.30367 9.43028 12.9718 8.53768 14.0572 8.22024C14.3337 8.77857 14.6919 9.39667 15.105 10.0343L13.8951 10.7859C13.728 10.8897 13.6767 11.1092 13.7805 11.2763C13.848 11.3849 13.9643 11.4445 14.0834 11.4445C14.1476 11.4445 14.2125 11.4272 14.271 11.3909L15.5009 10.6269C15.6768 10.8826 15.86 11.1393 16.0489 11.3948L15.0874 12.0198C14.9225 12.127 14.8757 12.3475 14.9829 12.5125C15.0512 12.6175 15.1653 12.6745 15.2818 12.6745C15.3483 12.6745 15.4157 12.6559 15.4756 12.6169L16.4807 11.9636C16.6402 12.1683 16.8026 12.3706 16.9669 12.5696L16.0728 13.1187C15.9052 13.2216 15.8528 13.4409 15.9557 13.6085C16.0229 13.718 16.1398 13.7783 16.2595 13.7783C16.323 13.7783 16.3873 13.7613 16.4455 13.7256L17.4336 13.1189C19.3817 15.3515 20.9009 16.3358 21.8472 16.7683C23.1369 17.358 23.2941 18.1084 23.2888 18.4581C22.189 18.6492 20.7093 18.6057 19.1765 18.3332C17.3867 18.015 15.7011 17.4148 14.4304 16.6434C13.482 16.067 11.6217 14.8929 8.90115 13.1537C8.7354 13.0478 8.51527 13.0962 8.40929 13.2619C8.3034 13.4276 8.35182 13.6478 8.51752 13.7538Z" fill="#3F4D64"/>
</g>
<defs>
<clipPath id="clip0">
<rect width="24" height="24" fill="white"/>
</clipPath>
</defs>
</svg>
