<svg width="20" height="20" viewBox="0 0 20 20" fill="none" xmlns="http://www.w3.org/2000/svg">
<g clip-path="url(#clip0)">
<path d="M12.7584 7.24603C12.4997 7.24603 12.29 7.45571 12.29 7.71442V16.5669C12.29 16.8254 12.4997 17.0353 12.7584 17.0353C13.0171 17.0353 13.2268 16.8254 13.2268 16.5669V7.71442C13.2268 7.45571 13.0171 7.24603 12.7584 7.24603Z" fill="#3F4D64"/>
<path d="M7.23206 7.24603C6.97335 7.24603 6.76367 7.45571 6.76367 7.71442V16.5669C6.76367 16.8254 6.97335 17.0353 7.23206 17.0353C7.49076 17.0353 7.70044 16.8254 7.70044 16.5669V7.71442C7.70044 7.45571 7.49076 7.24603 7.23206 7.24603Z" fill="#3F4D64"/>
<path d="M3.20333 5.95416V17.4941C3.20333 18.1762 3.45344 18.8168 3.89035 19.2764C4.32525 19.7372 4.93049 19.9989 5.5639 20H14.4258C15.0594 19.9989 15.6647 19.7372 16.0994 19.2764C16.5363 18.8168 16.7864 18.1762 16.7864 17.4941V5.95416C17.6549 5.72363 18.2177 4.88457 18.1015 3.99336C17.9852 3.10233 17.2261 2.4358 16.3274 2.43562H13.9293V1.85014C13.932 1.35779 13.7374 0.885018 13.3888 0.537207C13.0403 0.18958 12.5668 -0.00399414 12.0744 3.10241e-05H7.91533C7.42298 -0.00399414 6.94947 0.18958 6.60093 0.537207C6.25239 0.885018 6.05772 1.35779 6.06046 1.85014V2.43562H3.66238C2.76367 2.4358 2.00456 3.10233 1.8882 3.99336C1.77202 4.88457 2.33481 5.72363 3.20333 5.95416ZM14.4258 19.0632H5.5639C4.76308 19.0632 4.14009 18.3753 4.14009 17.4941V5.99533H15.8496V17.4941C15.8496 18.3753 15.2267 19.0632 14.4258 19.0632ZM6.99722 1.85014C6.99411 1.60625 7.08999 1.37151 7.26307 1.19935C7.43597 1.02718 7.67126 0.932588 7.91533 0.936796H12.0744C12.3185 0.932588 12.5538 1.02718 12.7267 1.19935C12.8998 1.37133 12.9956 1.60625 12.9925 1.85014V2.43562H6.99722V1.85014ZM3.66238 3.37239H16.3274C16.793 3.37239 17.1705 3.74984 17.1705 4.21547C17.1705 4.68111 16.793 5.05856 16.3274 5.05856H3.66238C3.19674 5.05856 2.81929 4.68111 2.81929 4.21547C2.81929 3.74984 3.19674 3.37239 3.66238 3.37239Z" fill="#3F4D64"/>
<path d="M9.99573 7.24603C9.73702 7.24603 9.52734 7.45571 9.52734 7.71442V16.5669C9.52734 16.8254 9.73702 17.0353 9.99573 17.0353C10.2544 17.0353 10.4641 16.8254 10.4641 16.5669V7.71442C10.4641 7.45571 10.2544 7.24603 9.99573 7.24603Z" fill="#3F4D64"/>
</g>
<defs>
<clipPath id="clip0">
<rect width="20" height="20" fill="white"/>
</clipPath>
</defs>
</svg>
