<svg width="21" height="21" viewBox="0 0 21 21" fill="none" xmlns="http://www.w3.org/2000/svg">
<path d="M7.37503 16.464L4.24207 18.1729C4.05822 18.2732 3.89299 18.3964 3.73926 18.5307C5.56586 20.0709 7.92381 21 10.5001 21C13.0573 21 15.4002 20.0847 17.2217 18.5656C17.0537 18.4237 16.8714 18.2962 16.6693 18.1955L13.3145 16.5183C12.881 16.3016 12.6072 15.8586 12.6072 15.374V14.0577C12.7015 13.9503 12.8093 13.8125 12.9246 13.6496C13.3818 13.0038 13.7277 12.2933 13.9674 11.548C14.3977 11.4153 14.7147 11.0179 14.7147 10.5456V9.14055C14.7147 8.83149 14.5772 8.55532 14.3637 8.36197V6.33091C14.3637 6.33091 14.7809 3.17021 10.5005 3.17021C6.22003 3.17021 6.63726 6.33091 6.63726 6.33091V8.36197C6.4233 8.55532 6.2862 8.83149 6.2862 9.14055V10.5456C6.2862 10.9156 6.48075 11.2413 6.77197 11.4296C7.12303 12.9578 8.04228 14.0577 8.04228 14.0577V15.3415C8.04188 15.809 7.78592 16.2397 7.37503 16.464Z" fill="#E7ECED"/>
<path d="M10.6795 0.00162461C4.88149 -0.097432 0.100621 4.52257 0.00156461 10.3205C-0.0546995 13.608 1.41055 16.5627 3.74353 18.5276C3.89607 18.3945 4.05972 18.2724 4.24158 18.1734L7.37455 16.4644C7.78543 16.2402 8.0414 15.8095 8.0414 15.3411V14.0574C8.0414 14.0574 7.12175 12.9574 6.77109 11.4292C6.48026 11.241 6.28532 10.9157 6.28532 10.5452V9.14019C6.28532 8.83113 6.42281 8.55496 6.63638 8.36161V6.33055C6.63638 6.33055 6.21915 3.16985 10.4996 3.16985C14.78 3.16985 14.3628 6.33055 14.3628 6.33055V8.36161C14.5768 8.55496 14.7138 8.83113 14.7138 9.14019V10.5452C14.7138 11.0175 14.3969 11.4149 13.9666 11.5477C13.7268 12.293 13.3809 13.0034 12.9237 13.6492C12.8084 13.8121 12.7006 13.95 12.6063 14.0574V15.3736C12.6063 15.8582 12.8801 16.3016 13.3136 16.5179L16.6684 18.1952C16.8697 18.2958 17.0516 18.423 17.2192 18.5644C19.4816 16.6776 20.9433 13.8565 20.9976 10.6795C21.0975 4.88155 16.4778 0.100681 10.6795 0.00162461Z" fill="#556080"/>
</svg>
